<svg width="105" height="50" viewBox="0 0 105 50" fill="none" xmlns="http://www.w3.org/2000/svg">
<path d="M1.84 29.44C1.17333 29.44 0.56 29.3467 5.96046e-08 29.16V0.280001C0.32 0.146668 0.64 0.0666682 0.96 0.0400019C1.28 0.0133355 1.54667 2.38419e-06 1.76 2.38419e-06C2.05333 2.38419e-06 2.36 0.0133355 2.68 0.0400019C3.02667 0.0666682 3.36 0.146668 3.68 0.280001L13.48 19.68L23.24 0.280001C23.5867 0.146668 23.9067 0.0666682 24.2 0.0400019C24.4933 0.0133355 24.7467 2.38419e-06 24.96 2.38419e-06C25.2533 2.38419e-06 25.5733 0.0133355 25.92 0.0400019C26.2667 0.0666682 26.5867 0.146668 26.88 0.280001V29.16C26.24 29.3467 25.6133 29.44 25 29.44C24.3333 29.44 23.72 29.3467 23.16 29.16V8.28L15.12 24.24C14.6667 24.4267 14.12 24.52 13.48 24.52C12.84 24.52 12.28 24.4267 11.8 24.24L3.72 8.24V29.16C3.08 29.3467 2.45333 29.44 1.84 29.44ZM33.4028 29.32C32.7895 29.1067 32.2561 28.7867 31.8028 28.36C31.3761 27.9067 31.0961 27.3733 30.9628 26.76C31.4428 26.3067 32.0028 25.7333 32.6428 25.04C33.2828 24.3467 33.9095 23.52 34.5228 22.56C35.1361 21.5733 35.6428 20.4667 36.0428 19.24C36.4695 18.0133 36.6828 16.64 36.6828 15.12V10.28C36.9228 10.2 37.2028 10.1333 37.5228 10.08C37.8428 10.0267 38.1761 10 38.5228 10C39.1361 10 39.7361 10.0933 40.3228 10.28V19.52C40.3228 23.9467 41.9361 26.16 45.1628 26.16C47.0561 26.16 48.4428 25.4 49.3228 23.88C50.2295 22.3333 50.6828 20.2267 50.6828 17.56V10.28C51.2428 10.0933 51.8428 10 52.4828 10C53.1495 10 53.7628 10.0933 54.3228 10.28V26.96C54.8828 26.56 55.4561 26.1733 56.0428 25.8C56.6561 25.4 57.1761 25.08 57.6028 24.84C58.1361 25.16 58.5495 25.5733 58.8428 26.08C59.1361 26.5867 59.3228 27.1733 59.4028 27.84C59.0028 28.1067 58.4828 28.4533 57.8428 28.88C57.2295 29.28 56.6028 29.6933 55.9628 30.12C55.3228 30.5467 54.7761 30.9067 54.3228 31.2V40.36C54.3228 46.6 52.0428 49.72 47.4828 49.72C45.3761 49.72 43.7228 49.0933 42.5228 47.84C41.3495 46.5867 40.7628 44.8667 40.7628 42.68C40.7628 37.8 44.0961 33.2267 50.7628 28.96V27.08C49.2428 28.84 47.2161 29.72 44.6828 29.72C41.0028 29.72 38.5761 28.0667 37.4028 24.76C36.1761 26.7867 34.8428 28.3067 33.4028 29.32ZM44.3628 42.6C44.3628 43.7467 44.6295 44.64 45.1628 45.28C45.6961 45.9467 46.4295 46.28 47.3628 46.28C49.6295 46.28 50.7628 44.3067 50.7628 40.36V33.2C46.4961 36.2133 44.3628 39.3467 44.3628 42.6ZM67.5128 29.36C67.2461 29.36 66.9528 29.3333 66.6328 29.28C66.3395 29.2533 66.0195 29.2133 65.6728 29.16V3.64H56.1928C55.7661 2.38667 55.7661 1.26667 56.1928 0.280001H78.8728C79.0861 0.706669 79.1928 1.24 79.1928 1.88C79.1928 2.52 79.0861 3.10667 78.8728 3.64H69.4328V29.16C69.0861 29.2133 68.7528 29.2533 68.4328 29.28C68.1128 29.3333 67.8061 29.36 67.5128 29.36ZM93.2941 29.36C93.0274 29.36 92.7341 29.3333 92.4141 29.28C92.1207 29.2533 91.8007 29.2133 91.4541 29.16V3.64H81.9741C81.5474 2.38667 81.5474 1.26667 81.9741 0.280001H104.654C104.867 0.706669 104.974 1.24 104.974 1.88C104.974 2.52 104.867 3.10667 104.654 3.64H95.2141V29.16C94.8674 29.2133 94.5341 29.2533 94.2141 29.28C93.8941 29.3333 93.5874 29.36 93.2941 29.36Z" fill="black"/>
</svg>
